<?xml version="1.0" standalone="no"?>
<!DOCTYPE svg PUBLIC "-//W3C//DTD SVG 20010904//EN"
 "http://www.w3.org/TR/2001/REC-SVG-20010904/DTD/svg10.dtd">
<svg version="1.0" xmlns="http://www.w3.org/2000/svg"
 width="700.000000pt" height="700.000000pt" viewBox="0 0 700.000000 700.000000"
 preserveAspectRatio="xMidYMid meet">
<metadata>
Created by potrace 1.14, written by Peter Selinger 2001-2017
</metadata>
<g transform="translate(0.000000,700.000000) scale(0.100000,-0.100000)"
fill="#000000" stroke="none">
<path d="M5310 6426 c-313 -66 -738 -285 -1207 -622 -57 -41 -103 -73 -103
-71 -1 63 -53 414 -64 435 -39 76 -157 107 -226 60 -53 -36 -80 -83 -80 -138
0 -26 13 -161 30 -301 16 -140 30 -263 30 -275 0 -13 -29 -44 -90 -93 -49 -39
-157 -130 -239 -201 -83 -71 -152 -126 -155 -122 -2 4 -72 156 -156 337 -83
182 -162 349 -176 372 -63 109 -227 105 -284 -8 -37 -72 -34 -83 171 -527
l190 -414 -133 -127 c-73 -69 -158 -150 -190 -179 l-56 -53 -354 399 c-201
228 -369 409 -389 421 -119 68 -267 -42 -238 -176 10 -51 -43 12 652 -771
l100 -113 -104 -107 c-58 -59 -137 -143 -177 -186 -70 -76 -74 -78 -100 -67
-15 7 -245 128 -512 269 -470 249 -487 257 -542 257 -63 0 -97 -19 -135 -75
-30 -43 -31 -121 -3 -167 26 -43 41 -52 460 -273 201 -106 402 -212 447 -237
l82 -44 -115 -136 c-64 -74 -165 -197 -226 -273 l-110 -138 -67 18 c-36 10
-246 69 -466 130 -426 118 -435 120 -502 79 -17 -11 -41 -40 -54 -65 -36 -76
-17 -155 52 -206 13 -10 201 -68 418 -128 216 -60 395 -111 398 -114 2 -2 -26
-46 -63 -98 -78 -107 -230 -338 -294 -446 -24 -41 -48 -76 -55 -78 -6 -3 -111
11 -233 31 -265 42 -297 43 -343 12 -75 -50 -100 -136 -62 -214 30 -64 68 -79
277 -113 105 -17 191 -32 193 -34 2 -1 -19 -52 -46 -112 -112 -250 -160 -429
-168 -624 -4 -106 -2 -149 11 -200 41 -164 132 -278 278 -349 149 -73 293 -97
528 -88 251 10 518 58 1045 188 677 168 1180 344 1635 575 1232 623 1808 1576
1960 3245 38 416 44 578 45 1194 0 336 4 615 8 622 10 17 -72 77 -141 104 -72
28 -254 35 -352 15z m311 -139 l36 -16 7 -328 c11 -520 -14 -1177 -60 -1583
-104 -931 -332 -1575 -744 -2110 -99 -128 -359 -385 -500 -494 -591 -456
-1379 -771 -2615 -1045 -648 -144 -1017 -130 -1203 43 -401 376 213 1578 1573
3076 327 360 895 913 1285 1251 783 677 1491 1123 1929 1215 83 17 243 12 292
-9z"/>
<path d="M3140 4315 c-556 -94 -983 -504 -1102 -1058 -33 -155 -31 -400 5
-554 89 -383 315 -689 652 -882 109 -62 212 -103 348 -137 141 -36 379 -44
528 -19 562 94 997 522 1105 1085 24 126 24 352 1 475 -61 316 -224 597 -463
794 -195 161 -401 256 -649 296 -108 18 -321 18 -425 0z m341 -125 c206 -24
439 -114 591 -230 447 -340 608 -921 397 -1434 -112 -272 -327 -495 -602 -626
-683 -326 -1491 56 -1683 797 -32 121 -43 336 -25 463 94 640 687 1103 1322
1030z"/>
<path d="M3320 3734 c-180 -38 -358 -179 -438 -345 -43 -89 -72 -205 -72 -289
0 -132 65 -313 149 -413 122 -146 276 -224 467 -234 198 -11 359 51 499 191
126 126 186 271 187 446 1 117 -16 189 -69 299 -128 267 -427 409 -723 345z"/>
</g>
</svg>
